<?xml version="1.0" encoding="UTF-8"?>
<!DOCTYPE svg PUBLIC "-//W3C//DTD SVG 1.1//EN" "http://www.w3.org/Graphics/SVG/1.1/DTD/svg11.dtd">
<!-- Creator: CorelDRAW -->
<svg xmlns="http://www.w3.org/2000/svg" xml:space="preserve" width="6.82666in" height="6.82666in" style="shape-rendering:geometricPrecision; text-rendering:geometricPrecision; image-rendering:optimizeQuality; fill-rule:evenodd; clip-rule:evenodd"
viewBox="0 0 6.82666 6.82666"
 xmlns:xlink="http://www.w3.org/1999/xlink">
 <defs>
  <style type="text/css">
   <![CDATA[
    .fil1 {fill:none}
    .fil0 {fill:#FFFFFE}
    .fil2 {fill:none;fill-rule:nonzero}
   ]]>
  </style>
 </defs>
 <rect class="fil0" width="6.82666" height="6.82666"/>
 <g id="Layer_x0020_1">
  <metadata id="CorelCorpID_0Corel-Layer"/>
  <g id="_377763664">
   <rect id="_377764072" class="fil1" width="6.82666" height="6.82666"/>
   <rect id="_377763880" class="fil1" x="0.853331" y="0.853331" width="5.12" height="5.12"/>
  </g>
  <g id="_377763496">
   <path id="_377763856" class="fil2" d="M3.41333 1.06667c-0.648024,0 -1.2347,0.262657 -1.65935,0.687315 -0.424657,0.424654 -0.687315,1.01133 -0.687315,1.65935 0,0.648024 0.262657,1.2347 0.687315,1.65935 0.424654,0.424657 1.01133,0.687315 1.65935,0.687315 0.648024,0 1.2347,-0.262657 1.65935,-0.687315 0.424657,-0.424654 0.687315,-1.01133 0.687315,-1.65935 0,-0.648024 -0.262657,-1.2347 -0.687315,-1.65935 -0.424654,-0.424657 -1.01133,-0.687315 -1.65935,-0.687315zm-1.81019 0.53648c0.463272,-0.463276 1.10328,-0.749819 1.81019,-0.749819 0.706909,0 1.34691,0.286543 1.81019,0.749819 0.463276,0.463272 0.749819,1.10328 0.749819,1.81019 0,0.706909 -0.286543,1.34691 -0.749819,1.81019 -0.463272,0.463276 -1.10328,0.749819 -1.81019,0.749819 -0.706909,0 -1.34691,-0.286543 -1.81019,-0.749819 -0.463276,-0.463272 -0.749819,-1.10328 -0.749819,-1.81019 0,-0.706909 0.286543,-1.34691 0.749819,-1.81019z"/>
   <path id="_377764216" class="fil2" d="M3.75061 3.81952l0.69865 -1.26783 -1.3732 0.455449 -0.69865 1.26783 1.3732 -0.455449zm1.0162 -1.40283l-0.849547 1.54165 -0.0200157 0.0363189 -0.0399843 0.0132638 -1.67074 0.554134 -0.257551 0.0854213 0.130882 -0.237508 0.849547 -1.54165 0.0200157 -0.0363189 0.0399843 -0.0132638 1.67074 -0.554134 0.257551 -0.0854213 -0.130882 0.237508z"/>
   <path id="_377764048" class="fil2" d="M3.65278 3.20151l3.93701e-006 3.93701e-006 0.00624803 0.0075c0.0564488,0.0678858 0.0800512,0.152126 0.0725748,0.233433 -0.00721654,0.0784843 -0.0432756,0.154307 -0.106555,0.210224l0.000102362 0.000102362 -3.93701e-006 3.93701e-006 -3.93701e-006 3.93701e-006 -0.0075 0.00624803c-0.0678858,0.0564488 -0.152126,0.0800512 -0.233433,0.0725748 -0.0784843,-0.00721654 -0.154307,-0.0432756 -0.210224,-0.106555l-0.000102362 0.000102362 -3.93701e-006 -3.93701e-006 -3.93701e-006 -3.93701e-006 -0.00624803 -0.0075c-0.0564488,-0.0678858 -0.0800512,-0.152126 -0.0725748,-0.233433 0.00721654,-0.0784843 0.0432756,-0.154307 0.106555,-0.210224l-0.000102362 -0.000102362 3.93701e-006 -3.93701e-006 3.93701e-006 -3.93701e-006 0.0075 -0.00624803c0.0678858,-0.0564488 0.152126,-0.0800512 0.233433,-0.0725748 0.0784843,0.00721654 0.154307,0.0432756 0.210224,0.106555l0.000102362 -0.000102362 3.93701e-006 3.93701e-006zm-0.132843 0.221772c0.00251575,-0.0273661 -0.00533071,-0.0556299 -0.0241299,-0.0783031l-0.000114173 -0.000137795c-0.0188819,-0.0227087 -0.0451772,-0.0356142 -0.0724094,-0.0381181 -0.0273661,-0.00251575 -0.0556299,0.00533071 -0.0783031,0.0241299l-0.000137795 0.000114173c-0.0227087,0.0188819 -0.0356142,0.0451772 -0.0381181,0.0724094 -0.00251575,0.0273661 0.00533071,0.0556299 0.0241299,0.0783031l0.000114173 0.000137795c0.0188819,0.0227087 0.0451772,0.0356142 0.0724094,0.0381181 0.0273661,0.00251575 0.0556299,-0.00533071 0.0783031,-0.0241299l0.000137795 -0.000114173c0.0227087,-0.0188819 0.0356142,-0.0451772 0.0381181,-0.0724094z"/>
   <polygon id="_377763328" class="fil2" points="3.52,0.96 3.52,1.70666 3.30666,1.70666 3.30666,0.96 "/>
   <polygon id="_377763064" class="fil2" points="3.52,5.12 3.52,5.86667 3.30666,5.86667 3.30666,5.12 "/>
   <polygon id="_377763040" class="fil2" points="5.86666,3.52 5.12,3.52 5.12,3.30666 5.86666,3.30666 "/>
   <polygon id="_377763016" class="fil2" points="1.70666,3.52 0.959996,3.52 0.959996,3.30666 1.70666,3.30666 "/>
  </g>
 </g>
</svg>
